<svg width="50" height="50" viewBox="0 0 50 50" fill="none" xmlns="http://www.w3.org/2000/svg">
<circle cx="25" cy="25" r="25" fill="#7C94FF"/>
<path d="M20.9371 34.7131C20.7974 34.7105 20.6642 34.654 20.5652 34.5554L15.3166 29.2444C15.2189 29.1453 15.1641 29.0117 15.1641 28.8725C15.1641 28.7333 15.2189 28.5997 15.3166 28.5006L29.0271 14.793C29.0756 14.7435 29.1335 14.7042 29.1974 14.6774C29.2612 14.6505 29.3298 14.6367 29.3991 14.6367C29.4683 14.6367 29.5369 14.6505 29.6008 14.6774C29.6646 14.7042 29.7225 14.7435 29.771 14.793L35.0463 20.0654C35.1448 20.1641 35.2001 20.2979 35.2001 20.4373C35.2001 20.5767 35.1448 20.7105 35.0463 20.8092L21.309 34.5584C21.2105 34.6572 21.0767 34.7129 20.9371 34.7131ZM16.4324 28.8755L20.9401 33.4367L33.9276 20.4373L29.3991 15.9117L16.4324 28.8755Z" fill="white"/>
<path d="M34.6741 20.9641C34.6044 20.9645 34.5354 20.9511 34.471 20.9245C34.4067 20.898 34.3482 20.8588 34.2992 20.8094L29.0268 15.537C28.9284 15.4383 28.873 15.3046 28.873 15.1651C28.873 15.0257 28.9284 14.8919 29.0268 14.7932L31.663 12.154C31.7622 12.0554 31.8965 12 32.0364 12C32.1763 12 32.3106 12.0554 32.4098 12.154L37.6911 17.4175C37.7896 17.5162 37.8449 17.6499 37.8449 17.7894C37.8449 17.9288 37.7896 18.0626 37.6911 18.1613L35.0549 20.7975C35.0062 20.8498 34.9472 20.8916 34.8817 20.9202C34.8162 20.9489 34.7456 20.9638 34.6741 20.9641ZM30.1456 15.1651L34.6741 19.6907L36.5635 17.8013L32.0379 13.2728L30.1456 15.1651Z" fill="white"/>
<path d="M12.526 37.8372C12.4411 37.8366 12.3576 37.8156 12.2826 37.7761C12.2075 37.7365 12.143 37.6794 12.0946 37.6097C12.0462 37.54 12.0153 37.4597 12.0044 37.3755C11.9935 37.2914 12.003 37.2058 12.0321 37.1261L15.1979 28.6879C15.2289 28.6051 15.2804 28.5314 15.3475 28.4736C15.4146 28.4159 15.4951 28.376 15.5817 28.3577C15.6683 28.3398 15.7579 28.3438 15.8426 28.3692C15.9273 28.3947 16.0043 28.4408 16.0667 28.5035L21.3271 33.8145C21.3888 33.877 21.4338 33.954 21.4581 34.0384C21.4824 34.1228 21.4852 34.2119 21.4663 34.2976C21.4474 34.3834 21.4073 34.4631 21.3497 34.5294C21.2922 34.5957 21.2189 34.6466 21.1367 34.6774L12.6986 37.8045C12.6434 37.8256 12.585 37.8367 12.526 37.8372ZM15.8941 29.8305L13.4275 36.415L19.9733 33.9752L15.8941 29.8305Z" fill="white"/>
<path d="M15.6883 36.2571C15.5484 36.2548 15.4151 36.1971 15.3175 36.0968C15.2199 35.9964 15.166 35.8615 15.1676 35.7215C15.1794 35.5477 15.14 35.3742 15.0544 35.2225C14.9687 35.0707 14.8406 34.9474 14.6856 34.8676C14.4933 34.7668 14.2849 34.7003 14.0697 34.6712C14.0009 34.666 13.9338 34.6472 13.8722 34.6159C13.8107 34.5846 13.7559 34.5414 13.7111 34.4888C13.6663 34.4363 13.6324 34.3754 13.6112 34.3097C13.59 34.244 13.582 34.1747 13.5877 34.1059C13.5991 33.9664 13.6653 33.837 13.7718 33.7461C13.8783 33.6553 14.0164 33.6102 14.156 33.6209C14.879 33.6775 16.2388 34.1892 16.2388 35.7364C16.2377 35.807 16.2224 35.8766 16.194 35.9412C16.1655 36.0059 16.1245 36.0641 16.0732 36.1126C16.0219 36.1612 15.9614 36.1989 15.8953 36.2237C15.8293 36.2486 15.7589 36.2599 15.6883 36.2571Z" fill="white"/>
<path d="M18.8546 29.4029C18.7854 29.4032 18.7169 29.3897 18.653 29.3631C18.5891 29.3366 18.5312 29.2975 18.4827 29.2481C18.4331 29.1994 18.3938 29.1413 18.3669 29.0772C18.34 29.0131 18.3262 28.9442 18.3262 28.8747C18.3262 28.8052 18.34 28.7364 18.3669 28.6723C18.3938 28.6082 18.4331 28.5501 18.4827 28.5013L29.0274 17.9566C29.0765 17.9078 29.1346 17.8691 29.1986 17.8427C29.2626 17.8163 29.3312 17.8028 29.4004 17.803C29.4696 17.8031 29.5381 17.8169 29.602 17.8435C29.6659 17.8701 29.7239 17.909 29.7727 17.9581C29.8216 18.0071 29.8603 18.0653 29.8867 18.1293C29.913 18.1933 29.9265 18.2619 29.9264 18.3311C29.9262 18.4003 29.9125 18.4688 29.8859 18.5327C29.8592 18.5965 29.8203 18.6546 29.7713 18.7034L19.2265 29.2481C19.178 29.2975 19.1201 29.3366 19.0562 29.3631C18.9924 29.3897 18.9238 29.4032 18.8546 29.4029Z" fill="white"/>
<path d="M20.9635 31.5117C20.8231 31.5112 20.6885 31.4557 20.5886 31.3569C20.4899 31.2577 20.4346 31.1234 20.4346 30.9835C20.4346 30.8436 20.4899 30.7094 20.5886 30.6101L31.1452 20.0654C31.2439 19.9669 31.3777 19.9116 31.5171 19.9116C31.6566 19.9116 31.7903 19.9669 31.8891 20.0654C31.9385 20.1139 31.9779 20.1717 32.0047 20.2356C32.0315 20.2995 32.0454 20.3681 32.0454 20.4373C32.0454 20.5066 32.0315 20.5752 32.0047 20.639C31.9779 20.7029 31.9385 20.7608 31.8891 20.8092L21.3265 31.3569C21.2296 31.4528 21.0998 31.5082 20.9635 31.5117Z" fill="white"/>
<path d="M34.674 18.3281C34.588 18.3283 34.5032 18.3075 34.427 18.2676C34.3508 18.2277 34.2855 18.1698 34.2367 18.099C34.0194 17.858 32.5615 16.4209 31.6659 15.5402C31.5661 15.4423 31.5092 15.3088 31.5078 15.169C31.5064 15.0293 31.5606 14.8947 31.6585 14.7948C31.7563 14.695 31.8898 14.6381 32.0296 14.6367C32.1694 14.6354 32.304 14.6895 32.4038 14.7874C32.4038 14.7874 33.0762 15.4449 33.7279 16.0936C34.1147 16.4744 34.4211 16.7779 34.6413 17.0011L34.9388 17.2986C35.0308 17.3686 35.1019 17.4625 35.1444 17.57C35.1869 17.6775 35.1991 17.7946 35.1798 17.9086C35.1596 17.9962 35.1173 18.0773 35.0569 18.1439C34.9965 18.2106 34.92 18.2607 34.8347 18.2894C34.7834 18.3102 34.7292 18.3233 34.674 18.3281Z" fill="white"/>
</svg>
