<svg width="51" height="58" viewBox="0 0 51 58" fill="none" xmlns="http://www.w3.org/2000/svg">
<path d="M13.2881 58H7.24745C5.32586 57.9982 3.48348 57.234 2.12471 55.8753C0.765942 54.5165 0.00180516 52.6742 0 50.7526V7.25426C0.00180151 5.33205 0.76572 3.48897 2.12429 2.12912C3.48287 0.76927 5.32523 0.00360895 7.24745 0H13.2881C13.61 0 13.9187 0.127858 14.1463 0.35545C14.3739 0.583042 14.5017 0.891724 14.5017 1.21359V56.7932C14.4999 57.1139 14.3712 57.4208 14.1438 57.647C13.9164 57.8731 13.6088 58 13.2881 58ZM7.24745 2.42036C5.96597 2.42217 4.73749 2.93203 3.83135 3.83817C2.92521 4.74431 2.41533 5.97278 2.41353 7.25426V50.7526C2.41533 52.034 2.92521 53.2625 3.83135 54.1687C4.73749 55.0748 5.96597 55.5847 7.24745 55.5865H12.0813V2.40672L7.24745 2.42036Z" fill="#7C94FF"/>
<path d="M49.5387 58H13.2878C13.1293 58 12.9724 57.9688 12.826 57.9081C12.6796 57.8475 12.5466 57.7586 12.4345 57.6465C12.3224 57.5345 12.2336 57.4015 12.1729 57.2551C12.1123 57.1086 12.0811 56.9517 12.0811 56.7932V1.21359C12.081 0.892902 12.208 0.58525 12.4341 0.357853C12.6602 0.130456 12.9671 0.00180161 13.2878 0H49.5387C49.8594 0.00180161 50.1663 0.130456 50.3924 0.357853C50.6185 0.58525 50.7454 0.892902 50.7454 1.21359V56.7932C50.7454 56.9517 50.7142 57.1086 50.6536 57.2551C50.5929 57.4015 50.504 57.5345 50.392 57.6465C50.2799 57.7586 50.1469 57.8475 50.0005 57.9081C49.8541 57.9688 49.6972 58 49.5387 58ZM14.5014 55.5865H48.3592V2.40672H14.5014V55.5865Z" fill="#7C94FF"/>
<path d="M44.705 48.3322H27.7898C27.6313 48.3322 27.4744 48.301 27.328 48.2404C27.1816 48.1797 27.0485 48.0908 26.9365 47.9788C26.8244 47.8667 26.7355 47.7337 26.6749 47.5873C26.6142 47.4409 26.583 47.2839 26.583 47.1255C26.583 46.967 26.6142 46.8101 26.6749 46.6637C26.7355 46.5172 26.8244 46.3842 26.9365 46.2722C27.0485 46.1601 27.1816 46.0712 27.328 46.0106C27.4744 45.9499 27.6313 45.9187 27.7898 45.9187H44.705C44.8635 45.9187 45.0204 45.9499 45.1668 46.0106C45.3133 46.0712 45.4463 46.1601 45.5583 46.2722C45.6704 46.3842 45.7593 46.5172 45.8199 46.6637C45.8806 46.8101 45.9118 46.967 45.9118 47.1255C45.9118 47.2839 45.8806 47.4409 45.8199 47.5873C45.7593 47.7337 45.6704 47.8667 45.5583 47.9788C45.4463 48.0908 45.3133 48.1797 45.1668 48.2404C45.0204 48.301 44.8635 48.3322 44.705 48.3322Z" fill="#7C94FF"/>
<path d="M44.7054 53.166H33.8308C33.5107 53.166 33.2038 53.0388 32.9775 52.8125C32.7512 52.5862 32.624 52.2793 32.624 51.9592C32.624 51.6391 32.7512 51.3322 32.9775 51.1059C33.2038 50.8796 33.5107 50.7524 33.8308 50.7524H44.7054C45.0254 50.7524 45.3324 50.8796 45.5587 51.1059C45.785 51.3322 45.9121 51.6391 45.9121 51.9592C45.9121 52.2793 45.785 52.5862 45.5587 52.8125C45.3324 53.0388 45.0254 53.166 44.7054 53.166Z" fill="#7C94FF"/>
<path d="M35.037 12.1218H22.9557C22.6504 12.0988 22.3651 11.9614 22.1569 11.737C21.9487 11.5125 21.833 11.2177 21.833 10.9116C21.833 10.6055 21.9487 10.3106 22.1569 10.0862C22.3651 9.86179 22.6504 9.72434 22.9557 9.70141H35.037C35.2036 9.6889 35.371 9.71091 35.5286 9.76605C35.6863 9.8212 35.8309 9.90829 35.9533 10.0219C36.0758 10.1355 36.1734 10.2731 36.2402 10.4262C36.307 10.5793 36.3415 10.7446 36.3415 10.9116C36.3415 11.0786 36.307 11.2438 36.2402 11.3969C36.1734 11.55 36.0758 11.6877 35.9533 11.8013C35.8309 11.9149 35.6863 12.002 35.5286 12.0571C35.371 12.1123 35.2036 12.1343 35.037 12.1218Z" fill="#7C94FF"/>
<path d="M35.038 16.895H25.1179C24.7978 16.895 24.4909 16.7678 24.2646 16.5415C24.0383 16.3152 23.9111 16.0083 23.9111 15.6882C23.9111 15.3682 24.0383 15.0612 24.2646 14.8349C24.4909 14.6086 24.7978 14.4814 25.1179 14.4814H35.038C35.358 14.4814 35.665 14.6086 35.8913 14.8349C36.1176 15.0612 36.2447 15.3682 36.2447 15.6882C36.2447 16.0083 36.1176 16.3152 35.8913 16.5415C35.665 16.7678 35.358 16.895 35.038 16.895Z" fill="#7C94FF"/>
<path d="M35.037 21.7492H18.1218C17.8017 21.7492 17.4948 21.6221 17.2685 21.3958C17.0422 21.1695 16.915 20.8625 16.915 20.5425V6.04757C16.915 5.72689 17.0419 5.41923 17.2681 5.19184C17.4942 4.96444 17.8011 4.83579 18.1218 4.83398H35.037C35.3589 4.83398 35.6676 4.96184 35.8952 5.18943C36.1228 5.41703 36.2506 5.72571 36.2506 6.04757V20.5425C36.2488 20.8631 36.1202 21.1701 35.8928 21.3962C35.6654 21.6223 35.3577 21.7492 35.037 21.7492ZM19.3558 19.3357H33.8507V7.25435H19.3354L19.3558 19.3357Z" fill="#7C94FF"/>
<path d="M44.7057 30.2102C44.5473 30.2103 44.3904 30.179 44.2441 30.1181C44.0978 30.0573 43.9651 29.9681 43.8535 29.8556L39.8718 25.874L35.8969 29.8488C35.7264 30.0095 35.513 30.1174 35.2825 30.1594C35.052 30.2014 34.8143 30.1759 34.598 30.0857C34.3817 29.9956 34.1961 29.8448 34.0637 29.6516C33.9312 29.4583 33.8576 29.2308 33.8516 28.9966V1.21359C33.8516 0.892902 33.9785 0.58525 34.2046 0.357853C34.4307 0.130456 34.7376 0.00180161 35.0583 0H44.7261C45.0468 0.00180161 45.3537 0.130456 45.5799 0.357853C45.806 0.58525 45.9329 0.892902 45.9329 1.21359V29.0034C45.9332 29.2415 45.8628 29.4743 45.7304 29.6722C45.5981 29.87 45.4099 30.0241 45.1898 30.1147C45.0365 30.179 44.8718 30.2115 44.7057 30.2102ZM39.8718 22.9627C40.1927 22.9612 40.5013 23.0861 40.7308 23.3105L43.4989 26.0853V2.42036H36.2515V26.0853L39.0195 23.3105C39.2473 23.0878 39.5532 22.963 39.8718 22.9627Z" fill="#7C94FF"/>
</svg>
