<svg width="49" height="58" viewBox="0 0 49 58" fill="none" xmlns="http://www.w3.org/2000/svg">
<path d="M13.256 57.906H7.22991C5.31297 57.9042 3.47505 57.1896 2.11957 55.8341C0.764088 54.4786 0.00180079 52.6407 0 50.7238V7.33074C0.00179715 5.41317 0.763867 3.57456 2.11915 2.218C3.47444 0.861442 5.31235 0.0976346 7.22991 0.0940344H13.256C13.577 0.0940344 14.2833 0.0939844 14.4666 0.0940856C14.4666 -0.226999 14.4666 0.402137 14.4666 0.0940856L43.1897 0.434055L46.9301 2.49493L48.2907 5.87519V50.7645L47.6106 53.8252L45.2301 56.5457L39.4485 57.906H13.256C13.5759 57.906 12.961 57.906 13.256 57.906ZM7.22991 2.50854C5.95153 2.51034 4.72603 3.01896 3.82208 3.92291C2.91813 4.82686 2.40949 6.05236 2.40769 7.33074V50.7238C2.40949 52.0021 2.91813 53.2276 3.82208 54.1316C4.72603 55.0355 5.95153 55.5442 7.22991 55.546H12.0521H41.1489L44.8897 55.8656L46.2503 53.8252L47.6106 51.7847L48.2904 30.7003L47.6106 6.55533L47.2702 3.49469L44.5499 2.47448L12.0521 2.49493L7.22991 2.50854Z" fill="#7C94FF"/>
<path d="M35.7147 6.98234e-05L41.7408 6.92966e-05C43.6577 0.00187348 45.4957 0.764168 46.8511 2.11965C48.2066 3.47513 48.9689 5.31303 48.9707 7.22997L48.9707 50.623C48.9689 52.5406 48.2068 54.3792 46.8516 55.7357C45.4963 57.0923 43.6584 57.9023 41.7408 57.9059L35.6685 57.9059C35.3475 57.9059 34.7337 57.906 34.5504 57.9059C34.5504 58.227 34.5504 57.5979 34.5504 57.9059L5.78172 57.2258L2.04061 55.4588L0.340591 52.4649L0.340591 5.82893L1.3608 3.83467L3.74096 1.06794L8.84236 0.093887L35.7147 6.98234e-05C35.3948 6.60367e-05 36.0097 6.97976e-05 35.7147 6.98234e-05ZM41.7408 55.5255C43.0192 55.5237 44.2447 54.9348 45.1486 54.0308C46.0526 53.1269 46.5612 51.9014 46.563 50.623L46.563 7.22997C46.5612 5.95159 46.0526 4.72609 45.1486 3.82214C44.2447 2.91819 43.0192 2.40957 41.7408 2.40777L36.9186 2.40777L7.82181 2.40777L4.08103 2.08815L2.04094 4.17474L0.680324 5.82893L0.680326 27.2534L1.70087 51.4447L1.70054 54.4591L5.78172 55.8655L29.2466 55.5255L41.7408 55.5255Z" fill="#7C94FF"/>
<path d="M9.36664 11.3437L34.0081 11.3437C34.1661 11.3437 34.3227 11.3126 34.4687 11.2521C34.6148 11.1916 34.7475 11.1029 34.8593 10.9911C34.9711 10.8793 35.0598 10.7466 35.1203 10.6006C35.1808 10.4545 35.2119 10.298 35.2119 10.1399C35.2119 9.98179 35.1808 9.82524 35.1203 9.67918C35.0598 9.53312 34.9711 9.40042 34.8593 9.28863C34.7475 9.17684 34.6148 9.08816 34.4687 9.02766C34.3227 8.96716 34.1661 8.93604 34.0081 8.93604L9.36664 8.93603C9.20855 8.93603 9.05201 8.96716 8.90595 9.02766C8.7599 9.08816 8.62719 9.17684 8.51541 9.28863C8.40362 9.40042 8.31494 9.53312 8.25444 9.67918C8.19394 9.82524 8.1628 9.98178 8.1628 10.1399C8.1628 10.298 8.19394 10.4545 8.25444 10.6006C8.31494 10.7466 8.40362 10.8793 8.51541 10.9911C8.62719 11.1029 8.7599 11.1916 8.90595 11.2521C9.05201 11.3126 9.20855 11.3437 9.36664 11.3437Z" fill="#7C94FF"/>
<path d="M9.36664 16.7851L34.0081 16.7851C34.1661 16.7851 34.3227 16.754 34.4687 16.6935C34.6148 16.633 34.7475 16.5443 34.8593 16.4325C34.9711 16.3208 35.0598 16.188 35.1203 16.042C35.1808 15.8959 35.2119 15.7394 35.2119 15.5813C35.2119 15.4232 35.1808 15.2666 35.1203 15.1206C35.0598 14.9745 34.9711 14.8418 34.8593 14.73C34.7475 14.6183 34.6148 14.5296 34.4687 14.4691C34.3227 14.4086 34.1661 14.3774 34.0081 14.3774L9.36664 14.3774C9.20855 14.3774 9.05201 14.4086 8.90595 14.4691C8.7599 14.5296 8.62719 14.6182 8.51541 14.73C8.40362 14.8418 8.31494 14.9745 8.25444 15.1206C8.19394 15.2666 8.1628 15.4232 8.1628 15.5813C8.1628 15.7394 8.19394 15.8959 8.25444 16.042C8.31494 16.188 8.40362 16.3208 8.51541 16.4325C8.62719 16.5443 8.7599 16.633 8.90595 16.6935C9.05201 16.754 9.20855 16.7851 9.36664 16.7851Z" fill="#7C94FF"/>
<path d="M9.36586 22.2261L20.2141 22.2261C20.5334 22.2261 20.8396 22.0992 21.0654 21.8735C21.2911 21.6477 21.418 21.3415 21.418 21.0222C21.418 20.7029 21.2911 20.3967 21.0654 20.171C20.8396 19.9452 20.5334 19.8184 20.2141 19.8184L9.36586 19.8184C9.04658 19.8184 8.74039 19.9452 8.51462 20.171C8.28886 20.3967 8.16202 20.7029 8.16202 21.0222C8.16202 21.3415 8.28886 21.6477 8.51462 21.8735C8.74039 22.0992 9.04658 22.2261 9.36586 22.2261Z" fill="#7C94FF"/>
<path d="M38.7146 51.9958C38.5565 51.9959 38.4 51.9647 38.2541 51.904C38.1082 51.8433 37.9757 51.7543 37.8644 51.6421L33.8924 47.6701L29.9271 51.6353C29.757 51.7956 29.5441 51.9032 29.3142 51.9452C29.0843 51.9871 28.8471 51.9616 28.6313 51.8717C28.4156 51.7818 28.2305 51.6313 28.0983 51.4385C27.9662 51.2457 27.8927 51.0188 27.8867 50.7852L27.8867 35.6178C27.8867 35.2979 28.0133 34.991 28.2389 34.7642C28.4645 34.5373 28.7676 35.6196 29.0875 35.6178L34.008 37.5018L38.769 36.1417C39.0889 36.1435 39.3611 34.5373 39.5866 34.7642C39.8122 34.991 39.9388 35.2979 39.9388 35.6178V50.792C39.9392 51.0294 39.8689 51.2617 39.7368 51.4591C39.6048 51.6565 39.4171 51.8102 39.1975 51.9006C39.0446 51.9647 38.8803 51.9971 38.7146 51.9958ZM33.8924 44.7659C34.2125 44.7643 34.5204 44.889 34.7493 45.1128L37.5107 47.8809V38.182H30.2808V47.8809L33.0422 45.1128C33.2694 44.8906 33.5746 44.7661 33.8924 44.7659Z" fill="#7C94FF"/>
<circle cx="34.0079" cy="30.7007" r="7.48156" stroke="#7C94FF" stroke-width="2.72057"/>
</svg>
