<svg width="53" height="68" viewBox="0 0 53 68" fill="none" xmlns="http://www.w3.org/2000/svg">
<path d="M46.2082 67.9999H8.89939C6.53975 67.9979 4.27735 67.0596 2.60883 65.3911C0.94031 63.7225 0.00206895 61.4601 0 59.1005V9.09495C0.026277 8.74511 0.183787 8.41811 0.44098 8.17951C0.698174 7.94091 1.03602 7.80835 1.38684 7.80835C1.73767 7.80835 2.07556 7.94091 2.33276 8.17951C2.58995 8.41811 2.74746 8.74511 2.77374 9.09495C2.77374 10.7527 3.43228 12.3426 4.60452 13.5149C5.77675 14.6871 7.36664 15.3456 9.02443 15.3456H46.1848C47.8855 15.3477 49.5159 16.0242 50.7185 17.2268C51.921 18.4293 52.5975 20.0598 52.5996 21.7604V61.5461C52.6037 62.3895 52.4416 63.2255 52.1227 64.0063C51.8037 64.7871 51.334 65.4974 50.7405 66.0967C50.147 66.696 49.4413 67.1726 48.6637 67.4991C47.886 67.8257 47.0517 67.9958 46.2082 67.9999ZM2.77374 15.6504V59.1317C2.77373 60.7571 3.41885 62.316 4.56742 63.466C5.71598 64.6161 7.27404 65.2632 8.89939 65.2653H46.2082C47.1746 65.2632 48.1007 64.8778 48.7833 64.1938C49.4659 63.5097 49.8493 62.5828 49.8493 61.6164V21.8386C49.8493 20.8722 49.4659 19.9453 48.7833 19.2612C48.1007 18.5771 47.1746 18.1918 46.2082 18.1897H9.04785C6.6976 18.1718 4.44694 17.2384 2.77374 15.5879V15.6504Z" fill="#7C94FF"/>
<path d="M1.38293 10.4933C1.01543 10.4913 0.66368 10.3439 0.404546 10.0833C0.145412 9.82266 -5.79945e-06 9.47009 1.73481e-10 9.10258V8.46188C1.73569e-10 8.09509 0.145666 7.74332 0.405023 7.48397C0.664379 7.22461 1.01615 7.0789 1.38293 7.0789C1.5752 7.07745 1.76564 7.11635 1.94194 7.19306C2.11825 7.26978 2.27649 7.3826 2.40648 7.52426C2.53548 7.66606 2.63398 7.83286 2.69581 8.01432C2.75764 8.19577 2.78149 8.38803 2.76592 8.5791C2.76592 8.77443 2.76592 8.94631 2.76592 9.10258C2.76592 9.47009 2.62046 9.82266 2.36132 10.0833C2.10219 10.3439 1.75044 10.4913 1.38293 10.4933Z" fill="#7C94FF"/>
<path d="M48.3022 18.1505C47.9354 18.1505 47.5837 18.0048 47.3243 17.7454C47.065 17.4861 46.9193 17.1343 46.9193 16.7675V5.4303C46.9172 4.73881 46.6416 4.07622 46.1526 3.58726C45.6637 3.0983 45.0011 2.82268 44.3096 2.82061H9.04785C7.47681 2.82815 5.96519 3.42194 4.80901 4.48563C3.65282 5.54932 2.93535 7.00633 2.79715 8.57129C2.79715 8.76662 2.79715 8.9385 2.79715 9.09477C2.79715 10.7526 3.4557 12.3425 4.62793 13.5147C5.80017 14.6869 7.39006 15.3455 9.04785 15.3455C9.41463 15.3455 9.7664 15.4912 10.0258 15.7505C10.2851 16.0099 10.4308 16.3617 10.4308 16.7284C10.4308 17.0952 10.2851 17.447 10.0258 17.7064C9.7664 17.9657 9.41463 18.1114 9.04785 18.1114C6.64883 18.1093 4.34868 17.1554 2.65232 15.4591C0.955961 13.7627 0.00206901 11.4625 0 9.06354C0 8.82913 -9.53838e-06 8.57911 0.0390573 8.2822C0.229073 6.0237 1.26049 3.91896 2.92901 2.38502C4.59753 0.851087 6.78137 -0.00014355 9.04785 1.81575e-08H44.3174C45.7438 -1.48422e-06 47.1119 0.566128 48.1213 1.57402C49.1306 2.58192 49.6987 3.94919 49.7008 5.3756V16.705C49.7082 16.8928 49.6774 17.0802 49.6104 17.2558C49.5433 17.4315 49.4414 17.5917 49.3106 17.7268C49.1799 17.8619 49.0231 17.9691 48.8498 18.0419C48.6765 18.1148 48.4902 18.1517 48.3022 18.1505Z" fill="#7C94FF"/>
<path d="M42.9283 8.46197H6.9243C6.57446 8.43569 6.24746 8.27818 6.00886 8.02099C5.77026 7.76379 5.6377 7.4259 5.6377 7.07508C5.6377 6.72425 5.77026 6.38641 6.00886 6.12921C6.24746 5.87202 6.57446 5.71451 6.9243 5.68823H42.9283C43.2781 5.71451 43.6051 5.87202 43.8437 6.12921C44.0823 6.38641 44.2149 6.72425 44.2149 7.07508C44.2149 7.4259 44.0823 7.76379 43.8437 8.02099C43.6051 8.27818 43.2781 8.43569 42.9283 8.46197Z" fill="#7C94FF"/>
<path d="M42.927 12.6109H6.92302C6.55623 12.6109 6.20447 12.4652 5.94511 12.2058C5.68575 11.9465 5.54004 11.5947 5.54004 11.2279C5.54004 10.8611 5.68575 10.5094 5.94511 10.25C6.20447 9.99064 6.55623 9.84497 6.92302 9.84497H42.927C43.2938 9.84497 43.6455 9.99064 43.9049 10.25C44.1642 10.5094 44.31 10.8611 44.31 11.2279C44.31 11.5947 44.1642 11.9465 43.9049 12.2058C43.6455 12.4652 43.2938 12.6109 42.927 12.6109Z" fill="#7C94FF"/>
<path d="M41.498 54.1546H11.1274C10.0145 54.1525 8.94773 53.7101 8.16007 52.9239C7.37241 52.1377 6.92796 51.0717 6.92383 49.9588V33.4336C6.92589 32.3193 7.36943 31.2513 8.1573 30.4635C8.94518 29.6756 10.0132 29.232 11.1274 29.23H41.498C42.6128 29.23 43.682 29.6728 44.4703 30.4612C45.2587 31.2495 45.7016 32.3187 45.7016 33.4336V49.9666C45.6974 51.0788 45.2527 52.144 44.4649 52.9289C43.677 53.7139 42.6101 54.1546 41.498 54.1546ZM11.1274 31.9959C10.9397 31.9959 10.7537 32.0329 10.5802 32.1047C10.4068 32.1766 10.2491 32.2819 10.1164 32.4147C9.9836 32.5475 9.87825 32.7051 9.80639 32.8786C9.73453 33.052 9.69756 33.238 9.69756 33.4258V49.9666C9.69962 50.3452 9.85091 50.7077 10.1186 50.9754C10.3863 51.2431 10.7488 51.3944 11.1274 51.3965H41.498C41.8766 51.3944 42.239 51.2431 42.5067 50.9754C42.7745 50.7077 42.9257 50.3452 42.9278 49.9666V33.4336C42.9278 33.0544 42.7772 32.6907 42.509 32.4225C42.2409 32.1544 41.8772 32.0037 41.498 32.0037L11.1274 31.9959Z" fill="#7C94FF"/>
<path d="M38.7783 37.5355H13.8459C13.4791 37.5355 13.1273 37.3898 12.868 37.1304C12.6086 36.8711 12.4629 36.5193 12.4629 36.1525C12.4629 35.7857 12.6086 35.434 12.868 35.1746C13.1273 34.9152 13.4791 34.7695 13.8459 34.7695H38.7783C39.1451 34.7695 39.4969 34.9152 39.7562 35.1746C40.0156 35.434 40.1613 35.7857 40.1613 36.1525C40.1613 36.5193 40.0156 36.8711 39.7562 37.1304C39.4969 37.3898 39.1451 37.5355 38.7783 37.5355Z" fill="#7C94FF"/>
<path d="M38.7783 43.0752H13.8459C13.4791 43.0752 13.1273 42.9295 12.868 42.6702C12.6086 42.4108 12.4629 42.059 12.4629 41.6923C12.4629 41.3255 12.6086 40.9738 12.868 40.7144C13.1273 40.455 13.4791 40.3093 13.8459 40.3093H38.7783C39.1451 40.3093 39.4969 40.455 39.7562 40.7144C40.0156 40.9738 40.1613 41.3255 40.1613 41.6923C40.1613 42.059 40.0156 42.4108 39.7562 42.6702C39.4969 42.9295 39.1451 43.0752 38.7783 43.0752Z" fill="#7C94FF"/>
<path d="M38.7783 48.6151H13.8459C13.4791 48.6151 13.1273 48.4694 12.868 48.21C12.6086 47.9507 12.4629 47.5989 12.4629 47.2321C12.4629 46.8653 12.6086 46.5135 12.868 46.2542C13.1273 45.9948 13.4791 45.8491 13.8459 45.8491H38.7783C39.1451 45.8491 39.4969 45.9948 39.7562 46.2542C40.0156 46.5135 40.1613 46.8653 40.1613 47.2321C40.1613 47.5989 40.0156 47.9507 39.7562 48.21C39.4969 48.4694 39.1451 48.6151 38.7783 48.6151Z" fill="#7C94FF"/>
</svg>
