<svg width="26" height="26" viewBox="0 0 26 26" fill="none" xmlns="http://www.w3.org/2000/svg">
<path d="M8.93711 22.7131C8.79744 22.7105 8.66418 22.654 8.56519 22.5554L3.31663 17.2444C3.21887 17.1453 3.16406 17.0117 3.16406 16.8725C3.16406 16.7333 3.21887 16.5997 3.31663 16.5006L17.0271 2.79301C17.0756 2.74353 17.1335 2.70422 17.1974 2.67738C17.2612 2.65054 17.3298 2.63672 17.3991 2.63672C17.4683 2.63672 17.5369 2.65054 17.6008 2.67738C17.6646 2.70422 17.7225 2.74353 17.771 2.79301L23.0463 8.06538C23.1448 8.1641 23.2001 8.29785 23.2001 8.4373C23.2001 8.57674 23.1448 8.71049 23.0463 8.80922L9.30903 22.5584C9.21046 22.6572 9.07669 22.7129 8.93711 22.7131ZM4.43239 16.8755L8.94009 21.4367L21.9276 8.4373L17.3991 3.91175L4.43239 16.8755Z" fill="#7C94FF"/>
<path d="M22.6741 8.96411C22.6044 8.96454 22.5354 8.95109 22.471 8.92452C22.4067 8.89795 22.3482 8.85882 22.2992 8.8094L17.0268 3.53703C16.9284 3.43831 16.873 3.30455 16.873 3.16511C16.873 3.02567 16.9284 2.89192 17.0268 2.79319L19.663 0.154035C19.7622 0.0553755 19.8965 0 20.0364 0C20.1763 0 20.3106 0.0553755 20.4098 0.154035L25.6911 5.41747C25.7896 5.5162 25.8449 5.64995 25.8449 5.78939C25.8449 5.92884 25.7896 6.06259 25.6911 6.16131L23.0549 8.79749C23.0062 8.84979 22.9472 8.89156 22.8817 8.92022C22.8162 8.94887 22.7456 8.96381 22.6741 8.96411ZM18.1456 3.16511L22.6741 7.69066L24.5635 5.80129L20.0379 1.27278L18.1456 3.16511Z" fill="#7C94FF"/>
<path d="M0.525975 25.8372C0.441108 25.8366 0.357624 25.8156 0.282555 25.7761C0.207486 25.7365 0.143028 25.6794 0.0946145 25.6097C0.0462006 25.54 0.0152626 25.4597 0.00437627 25.3755C-0.00651003 25.2914 0.00298464 25.2058 0.0320706 25.1261L3.19787 16.6879C3.22895 16.6051 3.28039 16.5314 3.34748 16.4736C3.41456 16.4159 3.49511 16.376 3.58169 16.3577C3.66828 16.3398 3.75795 16.3438 3.84261 16.3692C3.92728 16.3947 4.00429 16.4408 4.06668 16.5035L9.32713 21.8145C9.38877 21.877 9.4338 21.954 9.4581 22.0384C9.48241 22.1228 9.48522 22.2119 9.46629 22.2976C9.44737 22.3834 9.40731 22.4631 9.34974 22.5294C9.29218 22.5957 9.21894 22.6466 9.1367 22.6774L0.698551 25.8045C0.643445 25.8256 0.584992 25.8367 0.525975 25.8372ZM3.8941 17.8305L1.42752 24.415L7.97334 21.9752L3.8941 17.8305Z" fill="#7C94FF"/>
<path d="M3.68833 24.2574C3.54839 24.255 3.41507 24.1974 3.3175 24.097C3.21993 23.9966 3.16605 23.8617 3.16764 23.7218C3.17942 23.5479 3.14005 23.3745 3.05439 23.2227C2.96874 23.071 2.84056 22.9476 2.68563 22.8679C2.49332 22.7671 2.28489 22.7006 2.06973 22.6715C2.00088 22.6662 1.93376 22.6474 1.87222 22.6161C1.81067 22.5848 1.75592 22.5416 1.71112 22.4891C1.66632 22.4365 1.63236 22.3757 1.61118 22.3099C1.59 22.2442 1.58203 22.175 1.58772 22.1062C1.59911 21.9666 1.6653 21.8373 1.77179 21.7464C1.87829 21.6555 2.01643 21.6105 2.15603 21.6212C2.87904 21.6777 4.23879 22.1895 4.23879 23.7367C4.23765 23.8072 4.22241 23.8769 4.19397 23.9415C4.16553 24.0061 4.12447 24.0644 4.07318 24.1129C4.0219 24.1614 3.96143 24.1992 3.89534 24.224C3.82925 24.2488 3.75887 24.2601 3.68833 24.2574Z" fill="#7C94FF"/>
<path d="M6.85462 17.4029C6.78543 17.4032 6.71686 17.3897 6.65298 17.3631C6.5891 17.3366 6.5312 17.2975 6.48269 17.2481C6.43313 17.1994 6.39376 17.1413 6.36689 17.0772C6.34001 17.0131 6.32617 16.9442 6.32617 16.8747C6.32617 16.8052 6.34001 16.7364 6.36689 16.6723C6.39376 16.6082 6.43313 16.5501 6.48269 16.5013L17.0274 5.9566C17.0765 5.90776 17.1346 5.86905 17.1986 5.8427C17.2626 5.81634 17.3312 5.80284 17.4004 5.80298C17.4696 5.80312 17.5381 5.81688 17.602 5.8435C17.6659 5.87011 17.7239 5.90905 17.7727 5.95809C17.8216 6.00712 17.8603 6.06531 17.8867 6.1293C17.913 6.1933 17.9265 6.26185 17.9264 6.33106C17.9262 6.40027 17.9125 6.46877 17.8859 6.53266C17.8592 6.59655 17.8203 6.65458 17.7713 6.70342L7.22654 17.2481C7.17803 17.2975 7.12013 17.3366 7.05625 17.3631C6.99237 17.3897 6.9238 17.4032 6.85462 17.4029Z" fill="#7C94FF"/>
<path d="M8.96351 19.5117C8.82309 19.5112 8.68846 19.4557 8.58861 19.3569C8.48995 19.2577 8.43457 19.1234 8.43457 18.9835C8.43457 18.8436 8.48995 18.7094 8.58861 18.6101L19.1452 8.0654C19.2439 7.96692 19.3777 7.91162 19.5171 7.91162C19.6566 7.91162 19.7903 7.96692 19.8891 8.0654C19.9385 8.11388 19.9779 8.17174 20.0047 8.2356C20.0315 8.29946 20.0454 8.36805 20.0454 8.43732C20.0454 8.5066 20.0315 8.57517 20.0047 8.63903C19.9779 8.70289 19.9385 8.76076 19.8891 8.80925L9.32649 19.3569C9.22959 19.4528 9.09979 19.5082 8.96351 19.5117Z" fill="#7C94FF"/>
<path d="M22.674 6.32808C22.588 6.32829 22.5032 6.30755 22.427 6.26763C22.3508 6.22771 22.2855 6.16982 22.2367 6.09898C22.0194 5.85797 20.5615 4.42087 19.6659 3.54016C19.5661 3.44231 19.5092 3.30882 19.5078 3.16904C19.5064 3.02926 19.5606 2.89465 19.6585 2.79483C19.7563 2.69501 19.8898 2.63814 20.0296 2.63675C20.1694 2.63535 20.304 2.68953 20.4038 2.78738C20.4038 2.78738 21.0762 3.44495 21.7279 4.09358C22.1147 4.47442 22.4211 4.77791 22.6413 5.00106L22.9388 5.2986C23.0308 5.36862 23.1019 5.46247 23.1444 5.56999C23.1869 5.6775 23.1991 5.79458 23.1798 5.90857C23.1596 5.99624 23.1173 6.07727 23.0569 6.14394C22.9965 6.21061 22.92 6.26069 22.8347 6.2894C22.7834 6.31022 22.7292 6.32326 22.674 6.32808Z" fill="#7C94FF"/>
</svg>
