<svg width="51" height="69" viewBox="0 0 51 69" fill="none" xmlns="http://www.w3.org/2000/svg">
<path d="M43.1094 62.5843H6.95232C6.58398 62.5843 6.23072 62.438 5.97026 62.1775C5.7098 61.9171 5.56348 61.5638 5.56348 61.1955V16.6896C5.56348 16.3213 5.7098 15.968 5.97026 15.7076C6.23072 15.4471 6.58398 15.3008 6.95232 15.3008H15.3089C15.678 15.3008 16.0321 15.4469 16.2938 15.7071C16.5555 15.9673 16.7036 16.3206 16.7056 16.6896V18.0785H33.3561V16.6896C33.3561 16.3213 33.5024 15.968 33.7629 15.7076C34.0233 15.4471 34.3766 15.3008 34.7449 15.3008H43.0937C43.2761 15.3008 43.4567 15.3367 43.6252 15.4065C43.7937 15.4763 43.9468 15.5786 44.0758 15.7076C44.2047 15.8365 44.307 15.9896 44.3768 16.1581C44.4466 16.3266 44.4826 16.5073 44.4826 16.6896V61.1876C44.4846 61.5546 44.3414 61.9076 44.0841 62.1693C43.8268 62.431 43.4764 62.5802 43.1094 62.5843ZM8.34117 59.8067H41.7206V18.0785H36.1573V19.4673C36.1573 19.8377 36.0102 20.193 35.7482 20.4549C35.4863 20.7169 35.1311 20.864 34.7606 20.864H15.3089C14.9399 20.862 14.5866 20.7139 14.3264 20.4522C14.0662 20.1905 13.9201 19.8364 13.9201 19.4673V18.0785H8.35686L8.34117 59.8067Z" fill="#7C94FF"/>
<path d="M48.6724 68.1392H1.38885C1.0205 68.1392 0.667246 67.9929 0.406787 67.7324C0.146328 67.472 0 67.1187 0 66.7504V11.1259C0 10.7575 0.146328 10.4043 0.406787 10.1438C0.667246 9.88335 1.0205 9.73706 1.38885 9.73706H15.3087C15.6778 9.73705 16.0318 9.88309 16.2935 10.1433C16.5553 10.4036 16.7033 10.7568 16.7054 11.1259V18.078H33.3559V11.1259C33.3559 10.7575 33.5022 10.4043 33.7626 10.1438C34.0231 9.88335 34.3764 9.73706 34.7447 9.73706H48.6567C49.025 9.73706 49.3783 9.88335 49.6388 10.1438C49.8992 10.4043 50.0456 10.7575 50.0456 11.1259V66.7504C50.0456 67.116 49.9014 67.4669 49.6443 67.7269C49.3872 67.9869 49.038 68.1351 48.6724 68.1392ZM2.75415 65.3615H47.26V12.5147H36.1571V19.4668C36.1571 19.8372 36.0099 20.1925 35.748 20.4544C35.4861 20.7164 35.1308 20.8635 34.7604 20.8635H15.3087C14.9396 20.8614 14.5864 20.7134 14.3262 20.4516C14.0659 20.1899 13.9198 19.8359 13.9199 19.4668V12.5147H2.75415V65.3615Z" fill="#7C94FF"/>
<path d="M34.7605 20.8641H15.3088C14.9397 20.862 14.5865 20.7139 14.3262 20.4522C14.066 20.1905 13.9199 19.8365 13.9199 19.4674V11.1265C13.9199 10.7581 14.0662 10.4048 14.3267 10.1444C14.5872 9.88393 14.9404 9.73764 15.3088 9.73764H18.0943V6.95992C18.0943 6.59085 18.2404 6.23678 18.5006 5.97507C18.7608 5.71337 19.1141 5.56533 19.4832 5.56325H20.9819C21.1332 4.58656 21.4129 3.63408 21.8136 2.7306C22.5982 0.972962 23.7674 0 25.0464 0C26.3254 0 27.471 0.972962 28.2792 2.7306C28.6799 3.63408 28.9595 4.58656 29.1109 5.56325H30.6096C30.9787 5.56533 31.3319 5.71337 31.5922 5.97507C31.8524 6.23678 31.9985 6.59085 31.9985 6.95992V9.73764H34.7761C35.1452 9.73764 35.4993 9.88367 35.761 10.1439C36.0227 10.4041 36.1708 10.7574 36.1728 11.1265V19.4674C36.1729 19.6521 36.1362 19.8351 36.065 20.0055C35.9939 20.176 35.8896 20.3307 35.7582 20.4606C35.6269 20.5905 35.471 20.6931 35.2998 20.7623C35.1285 20.8316 34.9452 20.8662 34.7605 20.8641ZM16.7133 18.0786H33.3559V12.5153H30.5782C30.2099 12.5153 29.8566 12.369 29.5962 12.1085C29.3357 11.8481 29.1894 11.4948 29.1894 11.1265V8.34878H27.7927C27.425 8.34672 27.0729 8.19975 26.8129 7.93974C26.5529 7.67972 26.4059 7.32763 26.4038 6.95992C26.4038 5.11597 25.5329 3.20143 25.015 2.81695C24.4971 3.20143 23.6262 5.11597 23.6262 6.95992C23.6241 7.32763 23.4771 7.67972 23.2171 7.93974C22.9571 8.19975 22.605 8.34672 22.2373 8.34878H20.8406V11.1265C20.8406 11.4948 20.6943 11.8481 20.4338 12.1085C20.1734 12.369 19.8201 12.5153 19.4518 12.5153H16.6741L16.7133 18.0786Z" fill="#7C94FF"/>
<path d="M29.2064 16.6891H20.8576C20.4892 16.6891 20.136 16.5428 19.8755 16.2823C19.6151 16.0218 19.4688 15.6686 19.4688 15.3002C19.4688 14.9319 19.6151 14.5786 19.8755 14.3182C20.136 14.0577 20.4892 13.9114 20.8576 13.9114H29.2064C29.3888 13.9114 29.5693 13.9473 29.7378 14.0171C29.9064 14.0869 30.0595 14.1892 30.1884 14.3182C30.3174 14.4471 30.4197 14.6002 30.4895 14.7687C30.5593 14.9372 30.5952 15.1179 30.5952 15.3002C30.5952 15.4826 30.5593 15.6632 30.4895 15.8317C30.4197 16.0002 30.3174 16.1533 30.1884 16.2823C30.0595 16.4113 29.9064 16.5136 29.7378 16.5834C29.5693 16.6532 29.3888 16.6891 29.2064 16.6891Z" fill="#7C94FF"/>
<path d="M37.5454 55.6244H12.5148C12.1465 55.6244 11.7932 55.478 11.5328 55.2176C11.2723 54.9571 11.126 54.6038 11.126 54.2355C11.126 53.8671 11.2723 53.5139 11.5328 53.2534C11.7932 52.993 12.1465 52.8467 12.5148 52.8467H37.5454C37.9138 52.8467 38.267 52.993 38.5275 53.2534C38.788 53.5139 38.9343 53.8671 38.9343 54.2355C38.9343 54.6038 38.788 54.9571 38.5275 55.2176C38.267 55.478 37.9138 55.6244 37.5454 55.6244Z" fill="#7C94FF"/>
<path d="M37.5454 50.0294H12.5148C12.1465 50.0294 11.7932 49.8831 11.5328 49.6226C11.2723 49.3621 11.126 49.0089 11.126 48.6405C11.126 48.2722 11.2723 47.9189 11.5328 47.6585C11.7932 47.398 12.1465 47.2517 12.5148 47.2517H37.5454C37.7278 47.2517 37.9084 47.2876 38.0769 47.3574C38.2454 47.4272 38.3985 47.5295 38.5275 47.6585C38.6565 47.7874 38.7588 47.9406 38.8286 48.1091C38.8984 48.2776 38.9343 48.4581 38.9343 48.6405C38.9343 48.8229 38.8984 49.0035 38.8286 49.172C38.7588 49.3405 38.6565 49.4936 38.5275 49.6226C38.3985 49.7516 38.2454 49.8539 38.0769 49.9237C37.9084 49.9935 37.7278 50.0294 37.5454 50.0294Z" fill="#7C94FF"/>
<path d="M37.5463 44.5372H12.5157C12.1644 44.5108 11.836 44.3527 11.5964 44.0944C11.3568 43.8361 11.2236 43.4968 11.2236 43.1444C11.2236 42.7921 11.3568 42.4529 11.5964 42.1946C11.836 41.9363 12.1644 41.7781 12.5157 41.7517H37.5463C37.8977 41.7781 38.226 41.9363 38.4656 42.1946C38.7053 42.4529 38.8384 42.7921 38.8384 43.1444C38.8384 43.4968 38.7053 43.8361 38.4656 44.0944C38.226 44.3527 37.8977 44.5108 37.5463 44.5372Z" fill="#7C94FF"/>
<path d="M37.5463 38.942H12.5157C12.1644 38.9156 11.836 38.7575 11.5964 38.4992C11.3568 38.2409 11.2236 37.9016 11.2236 37.5492C11.2236 37.1969 11.3568 36.8576 11.5964 36.5993C11.836 36.3411 12.1644 36.1829 12.5157 36.1565H37.5463C37.8977 36.1829 38.226 36.3411 38.4656 36.5993C38.7053 36.8576 38.8384 37.1969 38.8384 37.5492C38.8384 37.9016 38.7053 38.2409 38.4656 38.4992C38.226 38.7575 37.8977 38.9156 37.5463 38.942Z" fill="#7C94FF"/>
<path d="M37.5463 33.3793H12.5157C12.1644 33.3529 11.836 33.1947 11.5964 32.9364C11.3568 32.6781 11.2236 32.3389 11.2236 31.9865C11.2236 31.6342 11.3568 31.2949 11.5964 31.0367C11.836 30.7784 12.1644 30.6201 12.5157 30.5938H37.5463C37.8977 30.6201 38.226 30.7784 38.4656 31.0367C38.7053 31.2949 38.8384 31.6342 38.8384 31.9865C38.8384 32.3389 38.7053 32.6781 38.4656 32.9364C38.226 33.1947 37.8977 33.3529 37.5463 33.3793Z" fill="#7C94FF"/>
<path d="M37.5463 27.8163H12.5157C12.1644 27.7899 11.836 27.6317 11.5964 27.3734C11.3568 27.1151 11.2236 26.7758 11.2236 26.4235C11.2236 26.0712 11.3568 25.7319 11.5964 25.4736C11.836 25.2153 12.1644 25.0572 12.5157 25.0308H37.5463C37.8977 25.0572 38.226 25.2153 38.4656 25.4736C38.7053 25.7319 38.8384 26.0712 38.8384 26.4235C38.8384 26.7758 38.7053 27.1151 38.4656 27.3734C38.226 27.6317 37.8977 27.7899 37.5463 27.8163Z" fill="#7C94FF"/>
</svg>
